<svg width="40" height="40" viewBox="0 0 40 40" fill="none" xmlns="http://www.w3.org/2000/svg">
<g clip-path="url(#clip0_3536_3855)">
<path fill-rule="evenodd" clip-rule="evenodd" d="M40 20C40 31.046 31.046 40 20 40C8.954 40 0 31.046 0 20C0 8.954 8.954 0 20 0C31.046 0 40 8.954 40 20Z" fill="#FF6154"/>
<path fill-rule="evenodd" clip-rule="evenodd" d="M22.667 20H17V14H22.667C23.4626 14 24.2257 14.3161 24.7883 14.8787C25.3509 15.4413 25.667 16.2044 25.667 17C25.667 17.7956 25.3509 18.5587 24.7883 19.1213C24.2257 19.6839 23.4626 20 22.667 20ZM22.667 10H13V30H17V24H22.667C24.5235 24 26.304 23.2625 27.6167 21.9497C28.9295 20.637 29.667 18.8565 29.667 17C29.667 15.1435 28.9295 13.363 27.6167 12.0503C26.304 10.7375 24.5235 10 22.667 10Z" fill="white"/>
</g>
<defs>
<clipPath id="clip0_3536_3855">
<rect width="40" height="40" fill="white"/>
</clipPath>
</defs>
</svg>
