<svg width="71" height="65" viewBox="0 0 71 65" fill="none" xmlns="http://www.w3.org/2000/svg">
<g clip-path="url(#clip0_3224_11443)">
<path d="M11.0931 52.9389H8.02474V64.5851H4.18559V52.9389H0.353856L0.346436 49.7465H12.1796L11.0931 52.9389ZM41.986 52.9389H38.6728V64.5851H34.8635V52.9389H31.0396L31.0324 49.7465H43.0661L41.986 52.9389ZM16.3914 64.5851H12.8093L12.7813 54.5024H16.3914V64.5851ZM21.5815 56.6397L25.3384 53.2238H29.8583L25.111 57.5141L30.4307 64.5851H26.2556L22.7042 59.6731L21.5815 60.684V64.5851H17.7953V49.7465H21.5815V56.6397ZM61.3368 56.6397L65.0863 53.2238H69.6062L64.8589 57.5141L70.1419 64.5851H65.9668L62.4229 59.6731L61.3368 60.684V64.5851H57.5432L57.5065 49.7465H61.3368V56.6397Z" fill="black"/>
<path d="M14.5863 53.1708C15.5832 53.1708 16.3914 52.4042 16.3914 51.4586C16.3914 50.513 15.5832 49.7465 14.5863 49.7465C13.5894 49.7465 12.7812 50.513 12.7812 51.4586C12.7812 52.4042 13.5894 53.1708 14.5863 53.1708Z" fill="black"/>
<path d="M42.5506 58.4871C42.5516 55.3046 45.1342 52.6582 48.4812 52.4098H47.9208C44.5193 52.5979 41.8627 55.2676 41.8627 58.4974C41.8627 61.7273 44.5195 64.3969 47.9208 64.585H48.4812C45.1258 64.336 42.5402 61.6774 42.5506 58.4871Z" fill="#25F4EE"/>
<path d="M49.8526 52.4511H49.2834C52.6288 52.7117 55.203 55.3503 55.203 58.5182C55.203 61.6858 52.6286 64.3242 49.2834 64.585H49.8526C53.415 64.585 56.3031 61.8595 56.3031 58.4974C56.3031 55.1353 53.415 52.4098 49.8526 52.4098V52.4511Z" fill="#FE2C55"/>
<path d="M48.8823 61.4587C47.1581 61.4587 45.7604 60.1327 45.7604 58.4974C45.7604 56.8619 47.1583 55.5362 48.8823 55.5362C50.6066 55.5362 52.0043 56.8621 52.0043 58.4974C52.0003 60.1312 50.6047 61.4549 48.8823 61.4587V61.4587ZM48.8823 52.4098C45.3378 52.4098 42.4644 55.1353 42.4644 58.4974C42.4644 61.8595 45.3378 64.585 48.8823 64.585C52.4269 64.585 55.3003 61.8595 55.3003 58.4974C55.3003 56.8829 54.6241 55.3345 53.4205 54.1928C52.2169 53.0512 50.5845 52.4098 48.8823 52.4098Z" fill="black"/>
<path d="M31.2329 17.085V15.46C30.6347 15.3706 30.0304 15.3217 29.4249 15.3135C23.5616 15.3017 18.3705 18.8849 16.61 24.1588C14.849 29.433 16.9275 35.1742 21.7403 38.3322C18.1352 34.6935 17.134 29.3967 19.1844 24.8074C21.2347 20.218 25.9533 17.1936 31.2329 17.085Z" fill="#25F4EE"/>
<path d="M31.5175 35.2883C34.7648 35.2841 37.4341 32.8633 37.5763 29.7936V2.39932H42.8655C42.7576 1.82697 42.7061 1.24633 42.7117 0.664917L35.4774 0.664917V28.0326C35.3571 31.1181 32.6816 33.5621 29.4184 33.567C28.4436 33.5592 27.4845 33.3323 26.62 32.905C27.181 33.6398 27.917 34.2386 28.768 34.6527C29.619 35.0669 30.561 35.2846 31.5175 35.2883V35.2883ZM52.8936 11.6987V10.1964C50.9682 10.1974 49.085 9.66131 47.4784 8.65493C48.8882 10.1991 50.7886 11.2673 52.8936 11.6987V11.6987Z" fill="#25F4EE"/>
<path d="M47.0773 8.4647C45.5512 6.78128 44.71 4.61732 44.7106 2.37708H42.8655C43.347 4.88042 44.8701 7.08167 47.0773 8.4647ZM29.3025 22.1396C26.4926 22.1531 24.0536 23.9655 23.3861 26.5353C22.7189 29.1052 23.9948 31.7727 26.4808 33.0055C25.8205 32.1487 25.4246 31.1344 25.3376 30.0763C25.2506 29.0182 25.4759 27.958 25.9882 27.0145C27.0331 25.0893 29.1364 23.878 31.4327 23.8797C32.045 23.887 32.6531 23.9764 33.2385 24.1453V17.1582C32.6406 17.0739 32.0372 17.0295 31.4327 17.0254H31.1082V22.3388C30.5195 22.1902 29.9114 22.1232 29.3025 22.1396V22.1396Z" fill="#FE2C55"/>
<path d="M52.7849 11.889V17.1876C49.1549 17.1811 45.6192 16.1013 42.6786 14.1011V28.0232C42.6629 34.9703 36.6661 40.5941 29.2738 40.5941C26.5318 40.5996 23.8545 39.8041 21.606 38.3156C25.35 42.1 31.1768 43.3455 36.2943 41.4559C41.4118 39.5661 44.7776 34.9258 44.7786 29.7585V15.8762C47.7293 17.8631 51.2694 18.9288 54.8992 18.9229V12.101C54.1886 12.0989 53.4802 12.0278 52.7849 11.889V11.889Z" fill="#FE2C55"/>
<path d="M42.7654 27.9697V13.9677C45.7205 15.9687 49.2627 17.0403 52.8936 17.0319V11.7026C50.7494 11.2756 48.8091 10.2004 47.3641 8.63839C45.0356 7.21617 43.4287 4.95176 42.9206 2.37708H37.5885V29.9546C37.482 32.415 35.7371 34.5416 33.2411 35.2533C30.7451 35.9648 28.0458 35.1057 26.5153 33.112C24.0297 31.8758 22.754 29.2003 23.4212 26.623C24.0883 24.0456 26.5273 22.2279 29.3366 22.2142C29.9489 22.2193 30.5572 22.3093 31.1421 22.4807V17.1518C25.8404 17.2366 21.0927 20.2717 19.0394 24.8889C16.9862 29.506 18.0153 34.8329 21.6629 38.4678C23.9325 39.9145 26.6167 40.6634 29.3506 40.6125C36.7486 40.6125 42.75 34.9564 42.7654 27.9697V27.9697Z" fill="black"/>
</g>
<defs>
<clipPath id="clip0_3224_11443">
<rect width="70" height="64" fill="white" transform="translate(0.244141 0.625)"/>
</clipPath>
</defs>
</svg>
